<svg xmlns:xlink="http://www.w3.org/1999/xlink" width="22" height="28" viewBox="0 0 22 28" fill="none" xmlns="http://www.w3.org/2000/svg"><path opacity="0.5" d="M11 16.5C10.6353 16.5 10.2856 16.6449 10.0277 16.9027C9.76987 17.1606 9.625 17.5103 9.625 17.875V20.625C9.625 20.9897 9.76987 21.3394 10.0277 21.5973C10.2856 21.8551 10.6353 22 11 22C11.3647 22 11.7144 21.8551 11.9723 21.5973C12.2301 21.3394 12.375 20.9897 12.375 20.625V17.875C12.375 17.5103 12.2301 17.1606 11.9723 16.9027C11.7144 16.6449 11.3647 16.5 11 16.5ZM11.5225 12.485C11.2736 12.3696 10.9959 12.3313 10.725 12.375L10.4775 12.4575L10.23 12.5812L10.0238 12.7463C9.89297 12.878 9.79022 13.0348 9.72169 13.2073C9.65316 13.3798 9.62027 13.5644 9.625 13.75C9.62395 13.931 9.65864 14.1103 9.72707 14.2779C9.79549 14.4454 9.89631 14.5978 10.0238 14.7262C10.1545 14.8514 10.3087 14.9496 10.4775 15.015C10.6407 15.092 10.8196 15.1296 11 15.125C11.181 15.126 11.3603 15.0914 11.5279 15.0229C11.6954 14.9545 11.8478 14.8537 11.9762 14.7262C12.1037 14.5978 12.2045 14.4454 12.2729 14.2779C12.3414 14.1103 12.376 13.931 12.375 13.75C12.376 13.569 12.3414 13.3897 12.2729 13.2221C12.2045 13.0546 12.1037 12.9022 11.9762 12.7738C11.8426 12.6523 11.6891 12.5546 11.5225 12.485ZM22 9.5425C21.9857 9.41618 21.958 9.29174 21.9175 9.17125V9.0475C21.8514 8.90612 21.7632 8.77616 21.6562 8.6625L13.4062 0.4125C13.2926 0.305547 13.1626 0.217361 13.0213 0.15125H12.8837C12.7501 0.0797542 12.6064 0.0287677 12.4575 0H4.125C3.03098 0 1.98177 0.434597 1.20818 1.20818C0.434597 1.98177 0 3.03098 0 4.125V23.375C0 24.469 0.434597 25.5182 1.20818 26.2918C1.98177 27.0654 3.03098 27.5 4.125 27.5H17.875C18.969 27.5 20.0182 27.0654 20.7918 26.2918C21.5654 25.5182 22 24.469 22 23.375V9.625C22 9.625 22 9.625 22 9.5425ZM13.75 4.68875L17.3113 8.25H15.125C14.7603 8.25 14.4106 8.10513 14.1527 7.84727C13.8949 7.58941 13.75 7.23967 13.75 6.875V4.68875ZM19.25 23.375C19.25 23.7397 19.1051 24.0894 18.8473 24.3473C18.5894 24.6051 18.2397 24.75 17.875 24.75H4.125C3.76033 24.75 3.41059 24.6051 3.15273 24.3473C2.89487 24.0894 2.75 23.7397 2.75 23.375V4.125C2.75 3.76033 2.89487 3.41059 3.15273 3.15273C3.41059 2.89487 3.76033 2.75 4.125 2.75H11V6.875C11 7.96902 11.4346 9.01823 12.2082 9.79182C12.9818 10.5654 14.031 11 15.125 11H19.25V23.375Z" fill="#000"></path></svg>