<svg xmlns:xlink="http://www.w3.org/1999/xlink" width="14" height="16" viewBox="0 0 14 16" fill="none" xmlns="http://www.w3.org/2000/svg" style="margin-left: 6px;"><path d="M12.6027 0H3.69863C2.92055 0 2.27397 0.624653 2.27397 1.39263V2.59596H1.42466C0.646575 2.59596 0 3.22061 0 3.98859V14.3917C0 15.1597 0.646575 15.7843 1.42466 15.7843H10.3288C11.1068 15.7843 11.726 15.1597 11.726 14.3917V13.1884H12.6027C13.3808 13.1884 14 12.5637 14 11.7957V1.39263C14 0.624653 13.3808 0 12.6027 0ZM10.6301 14.3917C10.6301 14.562 10.5014 14.7027 10.3288 14.7027H1.42466C1.25205 14.7027 1.09589 14.562 1.09589 14.3917V3.98859C1.09589 3.81823 1.25205 3.67761 1.42466 3.67761H10.3288C10.5014 3.67761 10.6301 3.81823 10.6301 3.98859V14.3917ZM12.9041 11.7957C12.9041 11.9661 12.7753 12.1067 12.6027 12.1067H11.726V3.98859C11.726 3.22061 11.1068 2.59596 10.3288 2.59596H3.36986V1.39263C3.36986 1.22227 3.52603 1.08165 3.69863 1.08165H12.6027C12.7753 1.08165 12.9041 1.22227 12.9041 1.39263V11.7957Z" fill="#F5E867"></path></svg>