<svg xmlns:xlink="http://www.w3.org/1999/xlink" width="15" height="16" viewBox="0 0 15 16" fill="none" xmlns="http://www.w3.org/2000/svg" style="margin-left: 6px;"><path d="M13.5696 8.6087C13.5696 8.2221 13.2562 7.9087 12.8696 7.9087C12.483 7.9087 12.1696 8.2221 12.1696 8.6087H13.5696ZM6.93478 2.91739C7.32138 2.91739 7.63478 2.60399 7.63478 2.21739C7.63478 1.83079 7.32138 1.51739 6.93478 1.51739V2.91739ZM10.6087 0.3C10.2221 0.3 9.9087 0.613401 9.9087 1C9.9087 1.3866 10.2221 1.7 10.6087 1.7V0.3ZM14 1H14.7C14.7 0.613401 14.3866 0.3 14 0.3V1ZM13.3 4.65217C13.3 5.03877 13.6134 5.35217 14 5.35217C14.3866 5.35217 14.7 5.03877 14.7 4.65217H13.3ZM7.26965 7.21934C7.00659 7.50263 7.023 7.94555 7.30629 8.20861C7.58959 8.47167 8.0325 8.45527 8.29556 8.17197L7.26965 7.21934ZM12.1696 8.6087V13.9043H13.5696V8.6087H12.1696ZM12.1696 13.9043C12.1696 14.1762 11.9828 14.3 11.8522 14.3V15.7C12.8519 15.7 13.5696 14.8499 13.5696 13.9043H12.1696ZM11.8522 14.3H2.01739V15.7H11.8522V14.3ZM2.01739 14.3C1.88672 14.3 1.7 14.1762 1.7 13.9043H0.3C0.3 14.8499 1.01763 15.7 2.01739 15.7V14.3ZM1.7 13.9043V3.31304H0.3V13.9043H1.7ZM1.7 3.31304C1.7 3.04119 1.88672 2.91739 2.01739 2.91739V1.51739C1.01763 1.51739 0.3 2.36751 0.3 3.31304H1.7ZM2.01739 2.91739H6.93478V1.51739H2.01739V2.91739ZM10.6087 1.7H14V0.3H10.6087V1.7ZM14.7 4.65217V1H13.3V4.65217H14.7ZM8.29556 8.17197L14.513 1.47632L13.487 0.523684L7.26965 7.21934L8.29556 8.17197Z" fill="#F5E867"></path></svg>