<svg xmlns:xlink="http://www.w3.org/1999/xlink" width="24" height="30" viewBox="0 0 24 30" fill="none" xmlns="http://www.w3.org/2000/svg"><path d="M23.907 3.89286C23.8152 3.57857 23.5962 3.26429 23.2853 3.04286C22.5294 2.50714 21.4626 2.64286 20.8903 3.4C20.5794 3.85 20.4876 4.42857 20.6218 4.92143C20.7137 5.27857 20.9327 5.59286 21.2435 5.81429C21.2859 5.85714 21.3354 5.90714 21.3778 5.90714C22.1337 6.48571 23.2005 6.30714 23.7728 5.55C23.9918 4.96429 24.0836 4.37857 23.907 3.89286ZM16.2698 1.20714C16.0438 0.535714 15.422 0 14.6661 0H14.5389C13.6064 0 12.8504 0.757143 12.8504 1.7C12.8504 1.87857 12.8928 2.05714 12.9423 2.23571C13.1613 2.95 13.783 3.44286 14.5389 3.44286C14.5813 3.44286 14.6732 3.44286 14.7156 3.44286C15.6481 3.44286 16.4465 2.72857 16.4465 1.78571C16.3546 1.56429 16.3122 1.38571 16.2698 1.20714ZM8.49841 3.52857C8.45602 3.35 8.36418 3.21429 8.2794 3.07857C7.74953 2.32143 6.68273 2.09286 5.92678 2.62857C5.88439 2.62857 5.88439 2.67143 5.83494 2.67143C5.21322 3.12857 4.98714 3.89286 5.21322 4.55714C5.25561 4.73571 5.34746 4.87143 5.43223 5.05C5.9621 5.80714 7.02891 5.98571 7.78486 5.45C7.82724 5.40714 7.8767 5.35714 7.91909 5.35714C8.45602 5.00714 8.71743 4.25 8.49841 3.52857ZM3.56709 10.0143C3.43286 9.52143 3.03722 9.07857 2.50029 8.9C1.61011 8.58571 0.635146 9.03571 0.324289 9.92857C0.2819 10.0214 0.2819 10.0643 0.232445 10.15C0.0982117 10.5071 0.0982117 10.8643 0.232445 11.2214C0.366679 11.7143 0.762315 12.1571 1.29925 12.3357C2.18943 12.65 3.16439 12.1571 3.47525 11.2643C3.47525 11.2214 3.51764 11.1714 3.51764 11.0857C3.65894 10.7286 3.65894 10.3714 3.56709 10.0143ZM3.30569 18.15C3.03722 17.2571 2.10465 16.7643 1.22154 16.9857C0.331354 17.2571 -0.198515 18.1929 0.069952 19.0857V19.1286C0.069952 19.1714 0.112342 19.2214 0.112342 19.2643C0.380809 20.1571 1.35577 20.6929 2.24595 20.3786C3.13613 20.1071 3.666 19.1286 3.35514 18.2357C3.34808 18.3286 3.34808 18.2429 3.30569 18.15C3.30569 18.2 3.30569 18.2 3.30569 18.15ZM8.01093 25.0786C7.91909 24.7643 7.70008 24.45 7.43161 24.2286C7.38922 24.1857 7.33977 24.1357 7.29738 24.1357C6.54143 23.5571 5.47462 23.6857 4.90236 24.45C4.54912 24.9 4.45727 25.4786 4.6339 26.0143C4.72574 26.3286 4.94475 26.6429 5.21322 26.8643L5.25561 26.9071C5.298 26.9071 5.298 26.95 5.34746 26.95C6.1034 27.5286 7.17021 27.35 7.74247 26.6357C8.05332 26.1571 8.14517 25.5714 8.01093 25.0786ZM15.6481 27.7643C15.4291 27.0929 14.8074 26.5571 14.0514 26.5571C14.0091 26.5571 13.9172 26.5571 13.8748 26.5571C12.9423 26.5143 12.1439 27.2714 12.1015 28.2143C12.1015 28.3929 12.1015 28.6143 12.1934 28.7929C12.4124 29.4643 12.9917 29.9571 13.7477 30C13.79 30 13.8819 30 13.9243 30H13.9667C14.8992 30 15.6976 29.2857 15.6976 28.3429C15.7329 28.1214 15.6905 27.9429 15.6481 27.7643ZM23.4125 25.4429C23.3701 25.2643 23.2782 25.1286 23.1935 24.9929C22.6636 24.2357 21.5968 24.0071 20.8408 24.5429C20.7985 24.5857 20.749 24.5857 20.7066 24.6357C20.0425 25.0857 19.8164 25.8429 19.9931 26.5571C20.0354 26.6929 20.1273 26.8714 20.2121 27.0071C20.7419 27.8143 21.7664 28.0357 22.5647 27.5C22.6071 27.4571 22.6989 27.4071 22.7413 27.3643C23.3701 26.9571 23.6386 26.1571 23.4125 25.4429Z" fill="#FFFFFF"></path><path d="M20.6642 8.31429C20.6218 8.17857 20.53 8.09286 20.4452 8C20.1344 7.72857 19.6045 7.72857 19.336 8.09286C19.117 8.31429 19.0676 8.62857 19.2018 8.9C19.2442 9.03572 19.336 9.12143 19.4208 9.21429C19.4632 9.21429 19.4632 9.25714 19.5126 9.25714C19.8235 9.57143 20.3534 9.52857 20.6218 9.21429C20.7066 8.94286 20.749 8.58571 20.6642 8.31429ZM17.2024 6.43571C17.1106 6.21429 16.9339 6.03571 16.6725 5.94286H16.6301C16.6301 5.94286 16.6301 5.94286 16.5878 5.94286C16.1427 5.85 15.747 6.07857 15.6128 6.52143C15.5704 6.7 15.5704 6.83571 15.6552 7.01429C15.747 7.23571 15.9237 7.41429 16.1851 7.50714C16.2274 7.50714 16.2274 7.50714 16.2769 7.55C16.722 7.68571 17.1176 7.41429 17.2519 6.97143C17.2448 6.79286 17.2448 6.61429 17.2024 6.43571ZM13.246 6.35C13.1118 5.99286 12.7162 5.77143 12.3559 5.85714C12.3135 5.85714 12.264 5.85714 12.2216 5.9C11.7765 5.99286 11.5081 6.43571 11.6423 6.83571C11.6423 6.87857 11.6423 6.92857 11.6847 6.92857C11.8189 7.28571 12.2146 7.50714 12.6173 7.42143C12.6597 7.42143 12.6597 7.42143 12.7091 7.42143C13.1542 7.32857 13.4227 6.88571 13.3308 6.48571C13.246 6.43571 13.246 6.39286 13.246 6.35ZM9.69945 8.09286C9.65706 8 9.60761 7.95714 9.56522 7.87143C9.29675 7.51429 8.76688 7.47143 8.45602 7.73571C8.45602 7.73571 8.41363 7.73571 8.41363 7.77857C8.14517 8 8.06039 8.35714 8.19462 8.67143C8.23701 8.76429 8.28647 8.80714 8.32886 8.89286C8.59732 9.25 9.12719 9.29286 9.43805 8.98571C9.48044 8.98571 9.48044 8.94286 9.52989 8.94286C9.74184 8.76429 9.82662 8.40714 9.69945 8.09286ZM7.29738 11.2643C7.20553 11.0857 7.07836 10.9071 6.85228 10.8143C6.44958 10.6357 5.9621 10.8143 5.78548 11.2143V11.2571C5.78548 11.2571 5.78548 11.3 5.74309 11.3C5.65125 11.4786 5.65125 11.7 5.74309 11.8786C5.83494 12.0571 5.9621 12.2357 6.18818 12.3286C6.59088 12.5071 7.07836 12.3286 7.2126 11.8786C7.2126 11.8357 7.25499 11.8357 7.25499 11.7857C7.38922 11.6714 7.38922 11.4429 7.29738 11.2643ZM6.63327 15.1571C6.49904 14.8429 6.18818 14.6214 5.83494 14.6643C5.38984 14.7071 5.07899 15.0643 5.07899 15.5143C5.07899 15.6071 5.12138 15.6929 5.12138 15.7357C5.25561 16.05 5.56647 16.2714 5.91971 16.2286C6.3648 16.1857 6.67566 15.8286 6.67566 15.3786C6.67566 15.3357 6.67566 15.3357 6.67566 15.2857C6.67566 15.3357 6.63327 15.2429 6.63327 15.1571ZM7.83431 19.0429C7.83431 19 7.79192 18.95 7.79192 18.9071C7.79192 18.8643 7.74953 18.8643 7.74953 18.8143C7.53052 18.4143 7.03597 18.3214 6.68273 18.5429C6.32948 18.7643 6.19525 19.1714 6.32948 19.5286C6.32948 19.5714 6.37187 19.6214 6.37187 19.6643C6.37187 19.6643 6.37187 19.7071 6.41426 19.7071C6.63327 20.0643 7.12782 20.2 7.52345 19.9786C7.83431 19.85 7.96148 19.4071 7.83431 19.0429ZM10.5826 21.9071C10.5402 21.7286 10.4059 21.5929 10.2717 21.5071C10.2293 21.4643 10.2293 21.4643 10.1799 21.4643C9.82662 21.2429 9.33914 21.3286 9.07067 21.7357C8.93644 21.9571 8.89405 22.2286 8.97883 22.45C9.02122 22.5857 9.15545 22.7214 9.28969 22.85C9.28969 22.85 9.28969 22.85 9.33208 22.85C9.33208 22.85 9.37446 22.85 9.37446 22.8929C9.72771 23.1143 10.2152 23.0286 10.4837 22.6214C10.6744 22.3571 10.6744 22.1286 10.5826 21.9071ZM14.3552 23.1143C14.2634 22.8429 14.002 22.6214 13.6911 22.6214C13.6487 22.6214 13.6487 22.6214 13.5993 22.6214C13.1542 22.5786 12.7586 22.8929 12.7091 23.3357C12.7091 23.4714 12.7091 23.6071 12.7515 23.6929C12.8433 23.9643 13.1047 24.1857 13.4156 24.1857H13.458C13.9031 24.2286 14.2563 23.9143 14.2987 23.4714C14.4047 23.3857 14.4047 23.25 14.3552 23.1143ZM18.2198 22.5357C18.0431 22.1357 17.598 21.9071 17.1953 22.0857C17.153 22.0857 17.153 22.1286 17.1035 22.1286C16.7008 22.3071 16.4818 22.7571 16.6584 23.1571C16.835 23.5571 17.2801 23.7857 17.6828 23.6071C18.2198 23.3857 18.3964 22.9357 18.2198 22.5357Z" fill="#FFFFFF"></path><path d="M18.135 10.8643C18.0926 10.7714 18.0431 10.6857 17.9584 10.6429C17.7393 10.4214 17.379 10.4643 17.16 10.6857C17.0258 10.8643 16.9834 11.0857 17.0682 11.2643C17.1106 11.3571 17.16 11.4429 17.2448 11.4857C17.4638 11.7071 17.8241 11.6643 18.0431 11.4429C18.1774 11.2643 18.2198 11.0429 18.135 10.8643ZM15.959 9.75C15.9166 9.57143 15.74 9.43571 15.5563 9.39286C15.5563 9.39286 15.5563 9.39286 15.5139 9.39286C15.203 9.3 14.8922 9.52857 14.8498 9.84286C14.8074 9.97857 14.8498 10.0643 14.8922 10.2C14.9346 10.3786 15.1112 10.5143 15.2949 10.5571C15.6057 10.65 15.9166 10.4214 15.959 10.1071C16.0014 9.97143 16.0014 9.83571 15.959 9.75ZM13.5145 9.79286C13.4227 9.52143 13.1118 9.39286 12.8504 9.43571C12.5396 9.52857 12.3629 9.83571 12.4477 10.15C12.4477 10.1929 12.4477 10.1929 12.4477 10.1929C12.5396 10.4643 12.8504 10.5929 13.1118 10.55C13.4227 10.4571 13.5993 10.15 13.5145 9.83572V9.79286ZM11.3385 10.9571C11.2961 10.9071 11.2961 10.8214 11.2467 10.7714C11.0277 10.55 10.6673 10.5 10.4483 10.7286C10.2717 10.9071 10.2293 11.1286 10.3141 11.3571C10.3565 11.4 10.3565 11.4929 10.4059 11.5357C10.625 11.7571 10.9853 11.8071 11.2043 11.5786C11.3809 11.4 11.4304 11.1357 11.3385 10.9571ZM9.96085 12.9643C9.91846 12.8286 9.78423 12.6929 9.65 12.65C9.33914 12.5571 9.02828 12.6929 8.93644 12.9643C8.89405 13.1 8.89405 13.2357 8.93644 13.3643C8.97883 13.5 9.11306 13.6357 9.2473 13.6786C9.55815 13.7714 9.86901 13.6357 9.96085 13.3214C10.0527 13.2357 10.0527 13.1 9.96085 12.9643ZM9.69945 15.4214C9.60761 15.2 9.3462 15.0214 9.07774 15.0643C8.76688 15.1071 8.54787 15.3786 8.59026 15.6929C8.59026 15.7357 8.59026 15.7857 8.63265 15.8286C8.72449 16.05 8.98589 16.2286 9.25436 16.1857C9.56522 16.1429 9.78423 15.8714 9.74184 15.5571C9.74184 15.5143 9.74184 15.4714 9.69945 15.4214ZM10.5826 17.75C10.5826 17.7071 10.5402 17.6571 10.5402 17.6143C10.3636 17.3429 10.0103 17.3 9.74184 17.4786C9.52283 17.6143 9.43098 17.9286 9.52283 18.15C9.52283 18.1929 9.56522 18.2429 9.56522 18.2857C9.74184 18.5571 10.0951 18.6 10.3636 18.4214C10.625 18.2857 10.6744 17.9714 10.5826 17.75ZM12.4477 19.3571C12.4053 19.2214 12.3135 19.1357 12.1792 19.0429C11.9108 18.9071 11.5575 19 11.4233 19.2643C11.3315 19.4 11.3315 19.5786 11.3809 19.7571C11.4233 19.8929 11.5151 19.9786 11.6494 20.0714C11.9178 20.2071 12.2711 20.1143 12.4053 19.8C12.4901 19.6714 12.4901 19.4929 12.4477 19.3571ZM14.8003 19.9429C14.7085 19.7214 14.4895 19.5857 14.2705 19.5857C13.9596 19.5857 13.6911 19.8571 13.6911 20.1643C13.6911 20.2571 13.6911 20.3 13.7335 20.3857C13.8254 20.6071 14.002 20.7429 14.2634 20.7429C14.5743 20.7429 14.8427 20.4714 14.8427 20.1643C14.8498 20.0714 14.8498 19.9857 14.8003 19.9429ZM17.2024 19.3143C17.2024 19.3143 17.2024 19.2714 17.16 19.2714C17.0258 19 16.6725 18.8714 16.4041 19.05C16.1356 19.1857 16.0508 19.5 16.1356 19.7643C16.1356 19.7643 16.1356 19.8071 16.178 19.8071C16.3122 20.0786 16.6655 20.2071 16.9339 20.0286C17.2024 19.8929 17.2872 19.5857 17.2024 19.3143Z" fill="#FFFFFF"></path></svg>