<svg xmlns:xlink="http://www.w3.org/1999/xlink" width="24" height="30" viewBox="0 0 4612 4900" fill="none" xmlns="http://www.w3.org/2000/svg"><path d="M1941 0H2672V734H1941V0Z" fill="#FFFFFF"></path><path d="M1940 4166H2671V4900H1940V4166Z" fill="#FFFFFF"></path><path d="M3978 2991L4611.06 3356.5L4244.06 3992.16L3611 3626.66L3978 2991Z" fill="#FFFFFF"></path><path d="M3.00059 1541.06L368.501 908L1004.16 1275L638.663 1908.06L3.00059 1541.06Z" fill="#FFFFFF"></path><path d="M635.663 2987L1001.16 3620.06L365.5 3987.06L0 3354L635.663 2987Z" fill="#FFFFFF"></path><path d="M4241.66 910L4607.16 1543.06L3971.5 1910.06L3606 1277L4241.66 910Z" fill="#FFFFFF"></path><path d="M825.5 1172.49C1005.45 967.921 1195.11 804.743 1451.48 691.365C1707.85 580.452 1988.29 489.495 2291.5 489.495C2666.2 489.495 3002.22 595.392 3300.5 762.995C3596.31 930.597 3830.31 1171.99 4002.86 1460.37C4172.95 1751.2 4258 2080.25 4258 2447.5C4258 2814.74 4164.59 3139.62 3994.5 3428C3821.94 3718.84 3604.31 3956.4 3308.5 4124C3010.22 4291.6 2724.5 4408 2289.5 4408C1988.76 4408 1710.41 4320.91 1456.5 4210C1326.36 4153.7 1032.35 3966.3 825.5 3727.5C624.869 3495.87 513.103 3207.01 424.5 3107.5L1111 2710.5C1206.5 3127 1451 3360.5 1694 3507.5C1844 3588 1973 3644.5 2224 3668.5C2539.5 3682 2715 3610 2892.5 3521.5C3055.2 3427.84 3243.33 3271.64 3337 3106.5C3428.21 2941.36 3532 2661.93 3532 2447.5C3532 2233.06 3476 2023.5 3346.5 1801C3252.83 1635.86 3078.7 1481.12 2916 1385C2710 1263.29 2500.5 1222.5 2267.5 1222.5C2092.48 1222.5 1893.5 1276 1693 1386C1439.89 1524.86 1185.5 1826.5 1111 2177L445 1798.99L825.5 1172.49Z" fill="#FFFFFF"></path><circle cx="2306" cy="2450" r="726" fill="#FFFFFF"></circle><path d="M1729.5 2539.91C1658.17 2498.72 1658.17 2395.76 1729.5 2354.58L3645 1248.67C3716.33 1207.48 3805.5 1258.96 3805.5 1341.33L3805.5 3553.16C3805.5 3635.53 3716.33 3687.01 3645 3645.82L1729.5 2539.91Z" fill="#FFFFFF"></path></svg>