<svg xmlns:xlink="http://www.w3.org/1999/xlink" xmlns="http://www.w3.org/2000/svg" viewBox="0 0 2985 2533" fill="none" height="2533" style="margin-right: -6px;" width="2985" ><path d="M1079.4 2132.57L1119.38 1999.31L1132.7 2345.79L1159.35 2479.04L1092.72 2452.39L1079.4 2132.57Z" fill="url(&quot;#paint0_linear_4_3&quot;)"></path><path d="M1079.4 2132.57L1119.38 1999.31L1132.7 2345.79L1159.35 2479.04L1092.72 2452.39L1079.4 2132.57Z" stroke="#000000" fill="none"></path><path d="M1905.6 2132.57L1865.62 1985.99L1852.3 2345.79L1812.32 2479.04L1878.95 2465.72L1905.6 2132.57Z" fill="url(&quot;#paint1_linear_4_3&quot;)"></path><path d="M1905.6 2132.57L1865.62 1985.99L1852.3 2345.79L1812.32 2479.04L1878.95 2465.72L1905.6 2132.57Z" stroke="#000000" fill="none"></path><path d="M1252.63 2012.64L1159.35 1746.12L1119.38 1999.31L1132.7 2345.79L1159.35 2479.04L1359.24 2532.35L1265.96 2385.76L1252.63 2012.64Z" fill="url(&quot;#paint2_linear_4_3&quot;)"></path><path d="M1252.63 2012.64L1159.35 1746.12L1119.38 1999.31L1132.7 2345.79L1159.35 2479.04L1359.24 2532.35L1265.96 2385.76L1252.63 2012.64Z" stroke="#000000" fill="none"></path><path d="M1345.92 2279.16L1359.24 2132.57L1439.2 2239.18H1559.13L1625.76 2132.57L1639.08 2279.16L1572.46 2292.48H1425.87L1345.92 2279.16Z" fill="#D9D9D9"></path><path d="M1345.92 2279.16L1359.24 2132.57L1439.2 2239.18H1559.13L1625.76 2132.57L1639.08 2279.16L1572.46 2292.48H1425.87L1345.92 2279.16Z" stroke="#000000" fill="none"></path><path d="M199.888 306.924L213.214 13.7544L186.562 27.0803L146.585 346.902L199.888 680.049V746.679L39.9777 426.857L0 440.183L199.888 839.96L466.406 1133.13V1173.11H413.103L186.562 1013.2L173.237 1053.17L466.406 1266.39L826.205 1279.71L1119.38 1346.34L1199.33 1426.3L1345.92 1333.02L1199.33 1226.41L1079.4 1186.43L879.509 919.915L866.183 866.612L839.531 879.937V986.545L986.116 1173.11L839.531 1159.78L679.621 1079.83L573.013 999.87L586.339 773.33L573.013 520.138H546.362L533.036 746.679L506.384 760.004L413.103 546.79L386.451 333.576H359.799L373.125 626.745L466.406 826.634L439.754 933.241L306.496 760.004L199.888 306.924Z" fill="url(&quot;#paint3_linear_4_3&quot;)"></path><path d="M199.888 306.924L213.214 13.7544L186.562 27.0803L146.585 346.902L199.888 680.049V746.679L39.9777 426.857L0 440.183L199.888 839.96L466.406 1133.13V1173.11H413.103L186.562 1013.2L173.237 1053.17L466.406 1266.39L826.205 1279.71L1119.38 1346.34L1199.33 1426.3L1345.92 1333.02L1199.33 1226.41L1079.4 1186.43L879.509 919.915L866.183 866.612L839.531 879.937V986.545L986.116 1173.11L839.531 1159.78L679.621 1079.83L573.013 999.87L586.339 773.33L573.013 520.138H546.362L533.036 746.679L506.384 760.004L413.103 546.79L386.451 333.576H359.799L373.125 626.745L466.406 826.634L439.754 933.241L306.496 760.004L199.888 306.924Z" stroke="#000000" fill="none"></path><path d="M2771.79 293.598L2745.13 0.428467L2785.11 13.7544L2825.09 320.25L2785.11 666.723V733.353L2945.02 413.531L2985 426.857L2785.11 826.634L2518.59 1119.8V1159.78H2571.9L2798.44 999.87L2811.76 1039.85L2505.27 1266.39L2158.79 1279.71L1865.62 1333.02L1772.34 1439.62L1625.76 1333.02L1785.67 1213.08L1905.6 1173.11L2105.49 906.589L2118.82 853.286L2145.47 866.611V973.219L1998.88 1159.78L2145.47 1146.46L2305.38 1066.5L2398.66 986.544L2385.33 760.004V520.138H2425.31L2451.96 733.353L2478.62 746.678L2571.9 533.464L2598.55 320.25H2625.2L2611.88 613.419L2518.59 813.308L2545.25 919.915L2678.5 746.678L2771.79 293.598Z" fill="url(&quot;#paint4_linear_4_3&quot;)"></path><path d="M2771.79 293.598L2745.13 0.428467L2785.11 13.7544L2825.09 320.25L2785.11 666.723V733.353L2945.02 413.531L2985 426.857L2785.11 826.634L2518.59 1119.8V1159.78H2571.9L2798.44 999.87L2811.76 1039.85L2505.27 1266.39L2158.79 1279.71L1865.62 1333.02L1772.34 1439.62L1625.76 1333.02L1785.67 1213.08L1905.6 1173.11L2105.49 906.589L2118.82 853.286L2145.47 866.611V973.219L1998.88 1159.78L2145.47 1146.46L2305.38 1066.5L2398.66 986.544L2385.33 760.004V520.138H2425.31L2451.96 733.353L2478.62 746.678L2571.9 533.464L2598.55 320.25H2625.2L2611.88 613.419L2518.59 813.308L2545.25 919.915L2678.5 746.678L2771.79 293.598Z" stroke="#000000" fill="none"></path><path d="M1425.87 2079.27L1359.24 2132.57L1439.2 2239.18H1559.13L1625.76 2132.57L1559.13 2079.27H1425.87Z" fill="black"></path><path d="M1425.87 2079.27L1359.24 2132.57L1439.2 2239.18H1559.13L1625.76 2132.57L1559.13 2079.27H1425.87Z" stroke="#000000" fill="none"></path><path d="M1719.04 1746.12V1812.75L1812.32 1746.12H1719.04Z" fill="black"></path><path d="M1719.04 1746.12V1812.75L1812.32 1746.12H1719.04Z" stroke="#000000" fill="none"></path><path d="M1265.96 1746.12V1812.75L1159.35 1746.12H1265.96Z" fill="black"></path><path d="M1265.96 1746.12V1812.75L1159.35 1746.12H1265.96Z" stroke="#000000" fill="none"></path><path d="M1186 1692.82L1199.33 1532.91L999.442 1439.62L812.879 1386.32L759.576 1519.58L892.835 1652.84L1079.4 1692.82H1186Z" fill="url(&quot;#paint5_linear_4_3&quot;)"></path><path d="M1186 1692.82L1199.33 1532.91L999.442 1439.62L812.879 1386.32L759.576 1519.58L892.835 1652.84L1079.4 1692.82H1186Z" stroke="#000000" fill="none"></path><path d="M1945.58 1452.95L1785.67 1532.91L1799 1679.49L1905.6 1692.82L2092.17 1652.84L2212.1 1519.58L2158.79 1386.32L1945.58 1452.95Z" fill="url(&quot;#paint6_linear_4_3&quot;)"></path><path d="M1945.58 1452.95L1785.67 1532.91L1799 1679.49L1905.6 1692.82L2092.17 1652.84L2212.1 1519.58L2158.79 1386.32L1945.58 1452.95Z" stroke="#000000" fill="none"></path><path d="M2158.79 1386.32L2278.73 1359.67L2212.61 1518.36L2158.79 1386.32Z" fill="#BABABA"></path><path d="M2158.79 1386.32L2278.73 1359.67L2212.61 1518.36L2158.79 1386.32Z" stroke="#000000" fill="none"></path><path d="M812.879 1386.32L759.576 1519.58L706.272 1359.67L812.879 1386.32Z" fill="#DADADA"></path><path d="M812.879 1386.32L759.576 1519.58L706.272 1359.67L812.879 1386.32Z" stroke="#000000" fill="none"></path><path d="M1159.35 1746.12L1186 1692.82L1265.96 1746.12H1159.35Z" fill="#363636"></path><path d="M1159.35 1746.12L1186 1692.82L1265.96 1746.12H1159.35Z" stroke="#000000" fill="none"></path><path d="M1799 1679.49L1719.04 1746.12H1812.32L1799 1679.49Z" fill="#363636"></path><path d="M1799 1679.49L1719.04 1746.12H1812.32L1799 1679.49Z" stroke="#000000" fill="none"></path><path d="M1159.35 1746.12L1186 1692.82H1079.4L1159.35 1746.12Z" fill="#FFFFFF"></path><path d="M1159.35 1746.12L1186 1692.82H1079.4L1159.35 1746.12Z" stroke="#000000" fill="none"></path><path d="M1812.32 1746.12L1799 1679.49L1905.6 1692.82L1812.32 1746.12Z" fill="#989898"></path><path d="M1812.32 1746.12L1799 1679.49L1905.6 1692.82L1812.32 1746.12Z" stroke="#000000" fill="none"></path><path d="M1652.41 1906.03L1719.04 1812.75V1746.12L1679.06 1612.86L1599.11 1892.71L1652.41 2025.96V1906.03Z" fill="#E0E0E0"></path><path d="M1652.41 1906.03L1719.04 1812.75V1746.12L1679.06 1612.86L1599.11 1892.71L1652.41 2025.96V1906.03Z" stroke="#000000" fill="none"></path><path d="M1385.89 1892.71L1292.61 1612.86L1265.96 1746.12V1812.75L1332.59 1906.03L1345.92 2025.96L1385.89 1892.71Z" fill="#FBFBFB"></path><path d="M1385.89 1892.71L1292.61 1612.86L1265.96 1746.12V1812.75L1332.59 1906.03L1345.92 2025.96L1385.89 1892.71Z" stroke="#000000" fill="none"></path><path d="M1345.92 2025.96L1359.24 2132.57L1425.87 2079.27H1559.13L1625.76 2132.57L1652.41 2025.96H1345.92Z" fill="#FFFFFF"></path><path d="M1345.92 2025.96L1359.24 2132.57L1425.87 2079.27H1559.13L1625.76 2132.57L1652.41 2025.96H1345.92Z" stroke="#000000" fill="none"></path><path d="M1292.61 1612.86H1679.06L1599.11 1892.71L1652.41 2025.96H1345.92L1385.89 1892.71L1292.61 1612.86Z" fill="#F8F8F8"></path><path d="M1292.61 1612.86H1679.06L1599.11 1892.71L1652.41 2025.96H1345.92L1385.89 1892.71L1292.61 1612.86Z" stroke="#000000" fill="none"></path><path d="M1719.04 1812.75L1812.32 1746.12L1639.08 2279.16L1625.76 2132.57L1652.41 2025.96V1906.03L1719.04 1812.75Z" fill="url(&quot;#paint7_linear_4_3&quot;)"></path><path d="M1719.04 1812.75L1812.32 1746.12L1639.08 2279.16L1625.76 2132.57L1652.41 2025.96V1906.03L1719.04 1812.75Z" stroke="#000000" fill="none"></path><path d="M1345.92 2279.16L1159.35 1746.12L1265.96 1812.75L1332.59 1906.03L1359.24 2132.57L1345.92 2279.16Z" fill="url(&quot;#paint8_linear_4_3&quot;)"></path><path d="M1345.92 2279.16L1159.35 1746.12L1265.96 1812.75L1332.59 1906.03L1359.24 2132.57L1345.92 2279.16Z" stroke="#000000" fill="none"></path><path d="M1292.61 1612.86L1186 1692.82L1265.96 1746.12L1292.61 1612.86Z" fill="#E7E7E7"></path><path d="M1292.61 1612.86L1186 1692.82L1265.96 1746.12L1292.61 1612.86Z" stroke="#000000" fill="none"></path><path d="M1679.06 1612.86L1799 1679.49L1719.04 1746.12L1679.06 1612.86Z" fill="#D8D8D8"></path><path d="M1679.06 1612.86L1799 1679.49L1719.04 1746.12L1679.06 1612.86Z" stroke="#000000" fill="none"></path><path d="M1292.61 1612.86L1199.33 1532.91L1186 1692.82L1292.61 1612.86Z" fill="url(&quot;#paint9_linear_4_3&quot;)"></path><path d="M1292.61 1612.86L1199.33 1532.91L1186 1692.82L1292.61 1612.86Z" stroke="#000000" fill="none"></path><path d="M1679.06 1612.86L1785.67 1532.91L1799 1679.49L1679.06 1612.86Z" fill="url(&quot;#paint10_linear_4_3&quot;)"></path><path d="M1679.06 1612.86L1785.67 1532.91L1799 1679.49L1679.06 1612.86Z" stroke="#000000" fill="none"></path><path d="M1345.92 1333.02L1199.33 1532.91V1426.3L1345.92 1333.02Z" fill="url(&quot;#paint11_linear_4_3&quot;)"></path><path d="M1345.92 1333.02L1199.33 1532.91V1426.3L1345.92 1333.02Z" stroke="#000000" fill="none"></path><path d="M1785.67 1532.91L1625.76 1333.02L1772.34 1439.62L1785.67 1532.91Z" fill="url(&quot;#paint12_linear_4_3&quot;)"></path><path d="M1785.67 1532.91L1625.76 1333.02L1772.34 1439.62L1785.67 1532.91Z" stroke="#000000" fill="none"></path><path d="M1625.76 1333.02L1679.06 1612.86L1785.67 1532.91L1625.76 1333.02Z" fill="#E0E0E0"></path><path d="M1625.76 1333.02L1679.06 1612.86L1785.67 1532.91L1625.76 1333.02Z" stroke="#000000" fill="none"></path><path d="M1292.61 1612.86L1345.92 1333.02L1199.33 1532.91L1292.61 1612.86Z" fill="#FBFBFB"></path><path d="M1292.61 1612.86L1345.92 1333.02L1199.33 1532.91L1292.61 1612.86Z" stroke="#000000" fill="none"></path><path d="M1492.5 1373L1345.92 1333.02L1292.61 1612.86H1679.06L1625.76 1333.02L1492.5 1373Z" fill="#F7F7F7"></path><path d="M1492.5 1373L1345.92 1333.02L1292.61 1612.86H1679.06L1625.76 1333.02L1492.5 1373Z" stroke="#000000" fill="none"></path><path d="M1719.04 2391.78V2033.04L1639.08 2279.16L1572.46 2292.48H1425.87L1345.92 2279.16L1252.63 2012.64L1261.41 2391.78L1359.24 2532.35H1485.84H1612.43L1719.04 2391.78Z" fill="url(&quot;#paint13_linear_4_3&quot;)"></path><path d="M1719.04 2391.78V2033.04L1639.08 2279.16L1572.46 2292.48H1425.87L1345.92 2279.16L1252.63 2012.64L1261.41 2391.78L1359.24 2532.35H1485.84H1612.43L1719.04 2391.78Z" stroke="#000000" fill="none"></path><path d="M1812.32 2479.04L1612.43 2532.35L1719.04 2391.59V2032.52L1812.32 1746.12L1865.63 1985.99L1852.3 2345.79L1812.32 2479.04Z" fill="url(&quot;#paint14_linear_4_3&quot;)"></path><path d="M1812.32 2479.04L1612.43 2532.35L1719.04 2391.59V2032.52L1812.32 1746.12L1865.63 1985.99L1852.3 2345.79L1812.32 2479.04Z" stroke="#000000" fill="none"></path><defs><linearGradient id="paint0_linear_4_3" x1="1119.38" y1="1999.31" x2="1119.38" y2="2479.04" gradientUnits="userSpaceOnUse"><stop stop-color="#C8C8C8"></stop></linearGradient><linearGradient id="paint1_linear_4_3" x1="1858.96" y1="1985.99" x2="1858.96" y2="2479.04" gradientUnits="userSpaceOnUse"><stop stop-color="#BDBDBD"></stop></linearGradient><linearGradient id="paint2_linear_4_3" x1="1239.31" y1="1746.12" x2="1239.31" y2="2532.35" gradientUnits="userSpaceOnUse"><stop stop-color="white"></stop></linearGradient><linearGradient id="paint3_linear_4_3" x1="672.958" y1="13.7544" x2="672.958" y2="1426.3" gradientUnits="userSpaceOnUse"><stop stop-color="white"></stop></linearGradient><linearGradient id="paint4_linear_4_3" x1="2305.38" y1="0.428467" x2="2305.38" y2="1439.62" gradientUnits="userSpaceOnUse"><stop stop-color="white"></stop></linearGradient><linearGradient id="paint5_linear_4_3" x1="979.453" y1="1386.32" x2="979.453" y2="1692.82" gradientUnits="userSpaceOnUse"><stop stop-color="#F7F7F7"></stop></linearGradient><linearGradient id="paint6_linear_4_3" x1="1998.88" y1="1386.32" x2="1998.88" y2="1692.82" gradientUnits="userSpaceOnUse"><stop stop-color="#E8E8E8"></stop></linearGradient><linearGradient id="paint7_linear_4_3" x1="1719.04" y1="1746.12" x2="1719.04" y2="2279.16" gradientUnits="userSpaceOnUse"><stop stop-color="#E2E2E2"></stop></linearGradient><linearGradient id="paint8_linear_4_3" x1="1259.3" y1="1746.12" x2="1259.3" y2="2279.16" gradientUnits="userSpaceOnUse"><stop stop-color="white"></stop></linearGradient><linearGradient id="paint9_linear_4_3" x1="1239.31" y1="1532.91" x2="1239.31" y2="1692.82" gradientUnits="userSpaceOnUse"><stop stop-color="#F8F8F8"></stop></linearGradient><linearGradient id="paint10_linear_4_3" x1="1739.03" y1="1532.91" x2="1739.03" y2="1679.49" gradientUnits="userSpaceOnUse"><stop stop-color="#ACACAC"></stop></linearGradient><linearGradient id="paint11_linear_4_3" x1="1272.62" y1="1333.02" x2="1272.62" y2="1532.91" gradientUnits="userSpaceOnUse"><stop stop-color="white"></stop><stop offset="1" stop-color="white"></stop></linearGradient><linearGradient id="paint12_linear_4_3" x1="1705.71" y1="1333.02" x2="1705.71" y2="1532.91" gradientUnits="userSpaceOnUse"><stop stop-color="#A0A0A0"></stop></linearGradient><linearGradient id="paint13_linear_4_3" x1="1485.84" y1="2012.64" x2="1485.84" y2="2532.35" gradientUnits="userSpaceOnUse"><stop stop-color="#B6B6B6"></stop></linearGradient><linearGradient id="paint14_linear_4_3" x1="1739.03" y1="1746.12" x2="1739.03" y2="2532.35" gradientUnits="userSpaceOnUse"><stop stop-color="#C6C6C6"></stop></linearGradient><linearGradient id="paint0_linear_4_3" x1="1119.38" y1="1999.31" x2="1119.38" y2="2479.04" gradientUnits="userSpaceOnUse"><stop stop-color="#C8C8C8"></stop></linearGradient><linearGradient id="paint1_linear_4_3" x1="1858.96" y1="1985.99" x2="1858.96" y2="2479.04" gradientUnits="userSpaceOnUse"><stop stop-color="#BDBDBD"></stop></linearGradient><linearGradient id="paint2_linear_4_3" x1="1239.31" y1="1746.12" x2="1239.31" y2="2532.35" gradientUnits="userSpaceOnUse"><stop stop-color="white"></stop></linearGradient><linearGradient id="paint3_linear_4_3" x1="672.958" y1="13.7544" x2="672.958" y2="1426.3" gradientUnits="userSpaceOnUse"><stop stop-color="white"></stop></linearGradient><linearGradient id="paint4_linear_4_3" x1="2305.38" y1="0.428467" x2="2305.38" y2="1439.62" gradientUnits="userSpaceOnUse"><stop stop-color="white"></stop></linearGradient><linearGradient id="paint5_linear_4_3" x1="979.453" y1="1386.32" x2="979.453" y2="1692.82" gradientUnits="userSpaceOnUse"><stop stop-color="#F7F7F7"></stop></linearGradient><linearGradient id="paint6_linear_4_3" x1="1998.88" y1="1386.32" x2="1998.88" y2="1692.82" gradientUnits="userSpaceOnUse"><stop stop-color="#E8E8E8"></stop></linearGradient><linearGradient id="paint7_linear_4_3" x1="1719.04" y1="1746.12" x2="1719.04" y2="2279.16" gradientUnits="userSpaceOnUse"><stop stop-color="#E2E2E2"></stop></linearGradient><linearGradient id="paint8_linear_4_3" x1="1259.3" y1="1746.12" x2="1259.3" y2="2279.16" gradientUnits="userSpaceOnUse"><stop stop-color="white"></stop></linearGradient><linearGradient id="paint9_linear_4_3" x1="1239.31" y1="1532.91" x2="1239.31" y2="1692.82" gradientUnits="userSpaceOnUse"><stop stop-color="#F8F8F8"></stop></linearGradient><linearGradient id="paint10_linear_4_3" x1="1739.03" y1="1532.91" x2="1739.03" y2="1679.49" gradientUnits="userSpaceOnUse"><stop stop-color="#ACACAC"></stop></linearGradient><linearGradient id="paint11_linear_4_3" x1="1272.62" y1="1333.02" x2="1272.62" y2="1532.91" gradientUnits="userSpaceOnUse"><stop stop-color="white"></stop><stop offset="1" stop-color="white"></stop></linearGradient><linearGradient id="paint12_linear_4_3" x1="1705.71" y1="1333.02" x2="1705.71" y2="1532.91" gradientUnits="userSpaceOnUse"><stop stop-color="#A0A0A0"></stop></linearGradient><linearGradient id="paint13_linear_4_3" x1="1485.84" y1="2012.64" x2="1485.84" y2="2532.35" gradientUnits="userSpaceOnUse"><stop stop-color="#B6B6B6"></stop></linearGradient><linearGradient id="paint14_linear_4_3" x1="1739.03" y1="1746.12" x2="1739.03" y2="2532.35" gradientUnits="userSpaceOnUse"><stop stop-color="#C6C6C6"></stop></linearGradient><linearGradient id="paint0_linear_4_3" x1="1119.38" y1="1999.31" x2="1119.38" y2="2479.04" gradientUnits="userSpaceOnUse"><stop stop-color="#C8C8C8"></stop></linearGradient><linearGradient id="paint1_linear_4_3" x1="1858.96" y1="1985.99" x2="1858.96" y2="2479.04" gradientUnits="userSpaceOnUse"><stop stop-color="#BDBDBD"></stop></linearGradient><linearGradient id="paint2_linear_4_3" x1="1239.31" y1="1746.12" x2="1239.31" y2="2532.35" gradientUnits="userSpaceOnUse"><stop stop-color="white"></stop></linearGradient><linearGradient id="paint3_linear_4_3" x1="672.958" y1="13.7544" x2="672.958" y2="1426.3" gradientUnits="userSpaceOnUse"><stop stop-color="white"></stop></linearGradient><linearGradient id="paint4_linear_4_3" x1="2305.38" y1="0.428467" x2="2305.38" y2="1439.62" gradientUnits="userSpaceOnUse"><stop stop-color="white"></stop></linearGradient><linearGradient id="paint5_linear_4_3" x1="979.453" y1="1386.32" x2="979.453" y2="1692.82" gradientUnits="userSpaceOnUse"><stop stop-color="#F7F7F7"></stop></linearGradient><linearGradient id="paint6_linear_4_3" x1="1998.88" y1="1386.32" x2="1998.88" y2="1692.82" gradientUnits="userSpaceOnUse"><stop stop-color="#E8E8E8"></stop></linearGradient><linearGradient id="paint7_linear_4_3" x1="1719.04" y1="1746.12" x2="1719.04" y2="2279.16" gradientUnits="userSpaceOnUse"><stop stop-color="#E2E2E2"></stop></linearGradient><linearGradient id="paint8_linear_4_3" x1="1259.3" y1="1746.12" x2="1259.3" y2="2279.16" gradientUnits="userSpaceOnUse"><stop stop-color="white"></stop></linearGradient><linearGradient id="paint9_linear_4_3" x1="1239.31" y1="1532.91" x2="1239.31" y2="1692.82" gradientUnits="userSpaceOnUse"><stop stop-color="#F8F8F8"></stop></linearGradient><linearGradient id="paint10_linear_4_3" x1="1739.03" y1="1532.91" x2="1739.03" y2="1679.49" gradientUnits="userSpaceOnUse"><stop stop-color="#ACACAC"></stop></linearGradient><linearGradient id="paint11_linear_4_3" x1="1272.62" y1="1333.02" x2="1272.62" y2="1532.91" gradientUnits="userSpaceOnUse"><stop stop-color="white"></stop><stop offset="1" stop-color="white"></stop></linearGradient><linearGradient id="paint12_linear_4_3" x1="1705.71" y1="1333.02" x2="1705.71" y2="1532.91" gradientUnits="userSpaceOnUse"><stop stop-color="#A0A0A0"></stop></linearGradient><linearGradient id="paint13_linear_4_3" x1="1485.84" y1="2012.64" x2="1485.84" y2="2532.35" gradientUnits="userSpaceOnUse"><stop stop-color="#B6B6B6"></stop></linearGradient><linearGradient id="paint14_linear_4_3" x1="1739.03" y1="1746.12" x2="1739.03" y2="2532.35" gradientUnits="userSpaceOnUse"><stop stop-color="#C6C6C6"></stop></linearGradient></defs></svg>