<svg xmlns:xlink="http://www.w3.org/1999/xlink" width="25" height="25" viewBox="0 0 25 25" fill="none" xmlns="http://www.w3.org/2000/svg"><path d="M3.8001 2.60342L3.20137 1.99715C3.15249 2.55587 2.72483 3.00761 2.16276 3.09082L2.78592 3.64955L25 23.7993L3.8001 2.60342ZM5.26637 8.45221V20.4826C5.70626 20.0309 6.42717 19.9834 6.91593 20.3757V12.3039L20.3079 25H22.6173L5.26637 8.45221ZM20.8578 5.67047C20.5401 5.67047 20.2346 5.55159 20.0024 5.33761V13.4807L6.86706 0.784593H4.31329L21.652 17.2967V5.38516C21.4321 5.56348 21.151 5.67047 20.8578 5.67047Z" fill="#FFFFFF"></path><path d="M1.96725 0C0.879765 0 0 0.85592 0 1.91393C0 2.97194 0.879765 3.82786 1.96725 3.82786C3.05474 3.82786 3.93451 2.97194 3.93451 1.91393C3.93451 0.85592 3.05474 0 1.96725 0ZM2.15054 3.09082C2.08944 3.10271 2.02835 3.10271 1.96725 3.10271C1.28299 3.10271 0.733138 2.56776 0.733138 1.91393C0.733138 1.24822 1.28299 0.713267 1.96725 0.713267C2.65152 0.713267 3.20137 1.24822 3.20137 1.91393C3.20137 1.9496 3.20137 1.97337 3.20137 2.00903C3.15249 2.55587 2.72483 3.00761 2.15054 3.09082Z" fill="#FFFFFF"></path><path d="M20.8578 2.55587C19.7703 2.57965 18.915 3.45934 18.9394 4.51736C18.9638 5.53971 19.8069 6.35996 20.8578 6.38374C21.1388 6.38374 21.4076 6.3243 21.652 6.21731C22.6417 5.78935 23.0938 4.66001 22.654 3.6971C22.3363 3.00761 21.6398 2.55587 20.8578 2.55587ZM21.652 5.38516C21.1388 5.81312 20.3568 5.75368 19.9169 5.2544C19.477 4.75511 19.5381 3.99429 20.0513 3.56633C20.5645 3.13837 21.3465 3.19781 21.7864 3.6971C21.9819 3.91108 22.0797 4.1845 22.0797 4.4698C22.0919 4.82644 21.933 5.1593 21.652 5.38516Z" fill="#FFFFFF"></path><path d="M6.91593 19.5435C5.91398 19.1274 4.7654 19.5911 4.33773 20.554C3.91007 21.5169 4.38661 22.6462 5.37634 23.0623C6.36608 23.4784 7.52688 23.0147 7.95455 22.0518C8.0523 21.8141 8.11339 21.5644 8.11339 21.3029C8.12561 20.5421 7.64907 19.8407 6.91593 19.5435ZM6.14614 22.5036C5.46188 22.5036 4.91202 21.9686 4.92424 21.3029C4.93646 20.6372 5.4741 20.1022 6.15836 20.1141C6.84262 20.1141 7.38025 20.6491 7.38025 21.3148C7.38025 21.9686 6.8304 22.5036 6.14614 22.5036Z" fill="#FFFFFF"></path></svg>