<svg xmlns:xlink="http://www.w3.org/1999/xlink" width="24" height="30" viewBox="0 0 2677 2365" fill="none" xmlns="http://www.w3.org/2000/svg"><path d="M2071 1847L293.048 598.515V911.375L1860.5 1995L2071 1847Z" fill="#FFFFFF"></path><path d="M1553 2214L293.048 1333.06V1627.37L1337.88 2365L1553 2214Z" fill="#FFFFFF"></path><path d="M2380.24 1333.06L2131.71 1520.4L2255.98 1602.02L2318.11 1642.82L2333.64 1653.03L2337.53 1655.58L2339.47 1656.85L2380.24 1628.85V1617.9V1595.99V1508.34V1333.06Z" fill="#FFFFFF"></path><path d="M1826.3 1308.32L2380.24 911.375V598.515L1607.44 1154.99L1826.3 1308.32Z" fill="#FFFFFF"></path><path d="M1329.84 939.817L2677 0H2261.54L1329.84 638.705L437.717 0H0L1329.84 939.817Z" fill="#FFFFFF"></path></svg>